#!OML:ASF F:\VICON\USERDATA\INSTALL\rory3\rory3.ASF
:FULLY-SPECIFIED
:DEGREES
289
root 1.5105 16.056 1.82718 -6.9235 2.59423 2.01247
lowerback 18.6727 -0.0906344 -3.00383
upperback 3.77343 -0.743086 -0.643146
thorax -6.35307 -0.311194 1.1954
lowerneck -8.7612 -2.39455 -6.56923
upperneck -2.12424 -2.65183 8.29712
head 1.0963 -1.15744 3.8019
rclavicle 5.87657e-015 -8.84592e-015
rhumerus -35.1213 10.2318 -84.4957
rradius 37.7831
rwrist 0.165957
rhand -28.1379 -2.6923
rfingers 7.12502
rthumb -1.51906 -32.6666
lclavicle 5.87657e-015 -8.84592e-015
lhumerus -31.0444 9.23555 75.5996
lradius 37.1521
lwrist 4.36615
lhand -26.2038 19.392
lfingers 7.12502
lthumb 0.34894 49.3715
rfemur -25.937 3.06137 16.9317
rtibia 74.8947
rfoot -34.5073 -9.33674
rtoes -10.7749
lfemur -24.6418 6.43536 -21.7007
ltibia 73.8814
lfoot -32.6142 1.77956
ltoes -12.1001
290
root 1.51147 16.1059 1.83337 -6.75561 2.51238 2.16243
lowerback 18.4891 -0.0389151 -3.13347
upperback 3.69859 -0.698751 -0.690966
thorax -6.33599 -0.287392 1.20608
lowerneck -8.69519 -2.42526 -6.61825
upperneck -1.96145 -2.70201 8.41327
head 1.14599 -1.181 3.85134
rclavicle 4.37326e-015 -3.47873e-015
rhumerus -35.4331 9.8619 -84.4914
rradius 37.5132
rwrist 0.398041
rhand -28.1333 -2.73456
rfingers 7.12502
rthumb -1.51465 -32.7089
lclavicle 4.37326e-015 -3.47873e-015
lhumerus -31.1744 9.9878 75.5869
lradius 35.8546
lwrist 3.94937
lhand -26.4459 19.1359
lfingers 7.12502
lthumb 0.115039 49.1156
rfemur -25.7387 3.07652 16.7004
rtibia 74.1783
rfoot -34.4502 -9.12783
rtoes -10.693
lfemur -24.2572 6.44296 -21.8865
ltibia 73.084
lfoot -32.5813 1.35359
ltoes -10.4253
291
root 1.50864 16.1515 1.84057 -6.61724 2.41921 2.11361
lowerback 18.2821 -0.0127734 -3.12626
upperback 3.64334 -0.654306 -0.660049
thorax -6.28593 -0.266129 1.22317
lowerneck -8.65785 -2.4335 -6.67333
upperneck -1.79865 -2.71996 8.50556
head 1.19781 -1.1882 3.89501
rclavicle 1.83752e-014 -1.66979e-014
rhumerus -35.6671 9.62273 -84.4833
rradius 37.1483
rwrist 0.649495
rhand -27.7115 -3.79373
rfingers 7.12502
rthumb -1.10728 -33.7706
lclavicle 1.83752e-014 -1.66979e-014
lhumerus -31.3708 10.4992 75.6897
lradius 34.7708
lwrist 4.33883
lhand -27.5549 18.4146
lfingers 7.12502
lthumb -0.955983 48.3922
rfemur -25.5314 3.17582 16.7267
rtibia 73.4541
rfoot -34.5768 -8.94566
rtoes -10.9117
lfemur -23.7588 6.45956 -21.8154
ltibia 72.2496
lfoot -32.5952 0.671397
ltoes -8.6938
292
root 1.50511 16.2083 1.84567 -6.40012 2.40796 1.918
lowerback 18.0316 -0.0251932 -2.99077
upperback 3.57978 -0.630394 -0.567182
thorax -6.2212 -0.256765 1.23815
lowerneck -8.65833 -2.4277 -6.6775
upperneck -1.6639 -2.71915 8.51386
head 1.24245 -1.18693 3.89938
rclavicle 2.62147e-015 6.26172e-015
rhumerus -35.8365 9.33282 -84.3694
rradius 36.83
rwrist 1.20758
rhand -27.3239 -4.83687
rfingers 7.12502
rthumb -0.732927 -34.8154
lclavicle 2.62147e-015 6.26172e-015
lhumerus -31.602 11.2179 75.7058
lradius 33.7915
lwrist 4.32297
lhand -27.9049 17.9898
lfingers 7.12502
lthumb -1.29406 47.9656
rfemur -25.3243 3.25907 16.9327
rtibia 72.6141
rfoot -34.597 -8.81309
rtoes -10.9965
lfemur -23.5922 6.49368 -21.6327
ltibia 71.4326
lfoot -32.3156 1.11956
ltoes -9.69723
293
root 1.50246 16.2779 1.85188 -6.15224 2.42231 1.73873
lowerback 17.7474 -0.0361377 -2.8452
upperback 3.50377 -0.603648 -0.489752
thorax -6.15182 -0.246201 1.23003
lowerneck -8.48862 -2.42017 -6.62461
upperneck -1.68957 -2.72058 8.4566
head 1.20099 -1.19245 3.86864
rclavicle -3.10601e-015 1.49089e-014
rhumerus -36.0212 8.89531 -84.2023
rradius 36.4743
rwrist 1.83029
rhand -28.0593 -3.40439
rfingers 7.12502
rthumb -1.44318 -33.3793
lclavicle -3.10601e-015 1.49089e-014
lhumerus -31.731 12.282 75.5176
lradius 32.585
lwrist 3.54157
lhand -27.6443 18.2625
lfingers 7.12502
lthumb -1.04235 48.2397
rfemur -25.01 3.29448 17.1148
rtibia 71.6298
rfoot -34.5662 -8.60281
rtoes -10.6676
lfemur -23.5905 6.49655 -21.4748
ltibia 70.6692
lfoot -31.9339 1.82149
ltoes -11.0408
294
root 1.50234 16.3528 1.86325 -5.93706 2.34882 1.66237
lowerback 17.4632 -0.00929784 -2.7694
upperback 3.4196 -0.544933 -0.465596
thorax -6.09183 -0.219013 1.19771
lowerneck -8.51271 -2.45614 -6.39446
upperneck -1.44848 -2.79728 8.19808
head 1.27905 -1.23404 3.7289
rclavicle -8.93289e-015 6.16232e-015
rhumerus -36.1644 8.41312 -84.0715
rradius 35.9252
rwrist 2.15333
rhand -28.7727 -2.15325
rfingers 7.12502
rthumb -2.13218 -32.1223
lclavicle -8.93289e-015 6.16232e-015
lhumerus -31.8636 13.2809 75.2561
lradius 31.373
lwrist 2.61414
lhand -26.8357 19.4346
lfingers 7.12502
lthumb -0.261425 49.4142
rfemur -24.623 3.39384 17.1777
rtibia 70.591
rfoot -34.4653 -8.45758
rtoes -10.3375
lfemur -23.4976 6.49175 -21.3966
ltibia 69.9202
lfoot -31.6473 1.9921
ltoes -11.1417
295
root 1.50016 16.412 1.87094 -5.74932 2.24824 1.53389
lowerback 17.2439 0.0201447 -2.67939
upperback 3.32386 -0.480943 -0.410404
thorax -6.07883 -0.188522 1.19005
lowerneck -8.53568 -2.50176 -6.26572
upperneck -1.17604 -2.8802 8.03111
head 1.37195 -1.27679 3.64198
rclavicle 5.479e-015 -1.0635e-014
rhumerus -36.2716 7.94879 -83.9209
rradius 35.2985
rwrist 2.7048
rhand -28.4035 -2.58985
rfingers 7.12502
rthumb -1.77563 -32.5622
lclavicle 5.479e-015 -1.0635e-014
lhumerus -32.0436 14.0063 75.084
lradius 30.3752
lwrist 1.92429
lhand -25.8399 21.0377
lfingers 7.12502
lthumb 0.700404 51.0163
rfemur -24.2889 3.55246 17.3378
rtibia 69.5931
rfoot -34.2935 -8.42016
rtoes -9.9986
lfemur -23.2729 6.48304 -21.2342
ltibia 69.1461
lfoot -31.4729 1.77158
ltoes -10.2142
296
root 1.49787 16.4624 1.87954 -5.67779 2.15425 1.48036
lowerback 17.1292 0.0518247 -2.6676
upperback 3.24937 -0.432543 -0.373619
thorax -6.09829 -0.164082 1.21138
lowerneck -8.42287 -2.47809 -6.30212
upperneck -1.02303 -2.85962 8.08284
head 1.40254 -1.26696 3.66927
rclavicle 2.39784e-015 -6.85807e-015
rhumerus -36.3929 7.4827 -83.7399
rradius 34.6875
rwrist 3.18155
rhand -27.6902 -2.85185
rfingers 7.12502
rthumb -1.08666 -32.8288
lclavicle 2.39784e-015 -6.85807e-015
lhumerus -32.2801 14.739 74.8451
lradius 29.3681
lwrist 1.38849
lhand -25.8984 21.5505
lfingers 7.12502
lthumb 0.643901 51.5293
rfemur -23.8562 3.69551 17.4311
rtibia 68.6417
rfoot -34.0696 -8.47928
rtoes -9.94445
lfemur -22.8 6.47457 -21.1436
ltibia 68.3115
lfoot -31.3853 1.47882
ltoes -9.00035
297
root 1.49621 16.5244 1.88827 -5.64099 2.06842 1.39595
lowerback 17.0243 0.0677464 -2.60149
upperback 3.19044 -0.394023 -0.320259
thorax -6.10624 -0.1456 1.22179
lowerneck -8.31605 -2.41299 -6.37917
upperneck -0.85358 -2.77993 8.11436
head 1.43525 -1.22781 3.70019
rclavicle 6.33626e-016 -1.07344e-014
rhumerus -36.5486 7.24617 -83.6295
rradius 34.1062
rwrist 2.97731
rhand -27.9977 -2.02025
rfingers 7.12502
rthumb -1.3837 -31.9955
lclavicle 6.33626e-016 -1.07344e-014
lhumerus -32.5814 15.627 74.4968
lradius 28.234
lwrist 0.776676
lhand -26.5651 20.6841
lfingers 7.12502
lthumb -4.21279e-005 50.6638
rfemur -23.339 3.82865 17.5593
rtibia 67.6804
rfoot -33.8216 -8.44892
rtoes -9.6885
lfemur -22.3846 6.45976 -21.0187
ltibia 67.4836
lfoot -31.1605 1.46311
ltoes -8.52765
298
root 1.49557 16.5882 1.89434 -5.53863 2.06696 1.3155
lowerback 16.8441 0.0638501 -2.52704
upperback 3.15806 -0.377708 -0.273179
thorax -6.04408 -0.13924 1.22511
lowerneck -8.37234 -2.38848 -6.36873
upperneck -0.655447 -2.75409 8.05899
head 1.50692 -1.21385 3.68073
rclavicle 1.00759e-014 2.38542e-015
rhumerus -36.6853 7.17533 -83.6277
rradius 33.5485
rwrist 1.98964
rhand -28.8829 -0.983437
rfingers 7.12502
rthumb -2.23859 -30.9514
lclavicle 1.00759e-014 2.38542e-015
lhumerus -32.8039 16.5507 74.1488
lradius 27.1176
lwrist 0.285064
lhand -27.1359 19.1533
lfingers 7.12502
lthumb -0.551334 49.1324
rfemur -22.9116 3.87509 17.6652
rtibia 66.7583
rfoot -33.4806 -8.37478
rtoes -9.2764
lfemur -22.0742 6.34862 -20.9299
ltibia 66.6564
lfoot -30.9095 1.67987
ltoes -8.94454
299
root 1.49444 16.6359 1.89985 -5.4298 2.06235 1.26367
lowerback 16.6431 0.070803 -2.46969
upperback 3.12732 -0.351128 -0.245746
thorax -5.96918 -0.12785 1.21494
lowerneck -8.36853 -2.35935 -6.39232
upperneck -0.561342 -2.71846 8.08441
head 1.53561 -1.19517 3.69655
rclavicle -2.93829e-015 5.81445e-015
rhumerus -36.7549 6.71096 -83.3388
rradius 33.2242
rwrist 2.82373
rhand -27.4601 -2.93767
rfingers 7.12502
rthumb -0.864436 -32.9157
lclavicle -2.93829e-015 5.81445e-015
lhumerus -32.9549 17.4303 73.8127
lradius 26.1889
lwrist -0.260523
lhand -27.3231 18.5353
lfingers 7.12502
lthumb -0.732153 48.5137
rfemur -22.5508 3.96186 17.7402
rtibia 65.8961
rfoot -33.3604 -8.30638
rtoes -8.74474
lfemur -21.696 6.25555 -20.8632
ltibia 65.8276
lfoot -30.7522 1.59314
ltoes -8.73034
300
root 1.49223 16.6757 1.90327 -5.33748 2.0445 1.20813
lowerback 16.4934 0.0912951 -2.43278
upperback 3.05289 -0.31216 -0.20884
thorax -5.96895 -0.108661 1.2243
lowerneck -8.28075 -2.343 -6.41093
upperneck -0.42775 -2.70657 8.10385
head 1.56374 -1.18996 3.70854
rclavicle 2.34814e-015 -7.35503e-015
rhumerus -36.9585 6.36483 -83.1308
rradius 32.8277
rwrist 3.06558
rhand -26.715 -3.31184
rfingers 7.12502
rthumb -0.144818 -33.2915
lclavicle 2.34814e-015 -7.35503e-015
lhumerus -33.0717 18.1525 73.4673
lradius 25.2862
lwrist -1.20958
lhand -26.9947 19.7978
lfingers 7.12502
lthumb -0.414961 49.7772
rfemur -22.2298 4.07207 17.829
rtibia 65.0713
rfoot -33.474 -8.37897
rtoes -8.27281
lfemur -21.2578 6.12589 -20.7979
ltibia 64.9865
lfoot -30.6444 1.38438
ltoes -8.15718
301
root 1.48908 16.728 1.90731 -5.2334 2.05157 1.201
lowerback 16.38 0.116467 -2.43541
upperback 2.9594 -0.277387 -0.203573
thorax -6.00845 -0.0903575 1.22368
lowerneck -8.33704 -2.34257 -6.36167
upperneck -0.151533 -2.72052 8.04882
head 1.66374 -1.19547 3.6805
rclavicle -8.19366e-015 5.86415e-015
rhumerus -37.1866 6.14081 -83.0417
rradius 32.3896
rwrist 2.79668
rhand -26.5574 -3.13476
rfingers 7.12502
rthumb 0.00736331 -33.1145
lclavicle -8.19366e-015 5.86415e-015
lhumerus -33.2778 18.6699 73.1203
lradius 24.4317
lwrist -1.99393
lhand -26.7865 20.9918
lfingers 7.12502
lthumb -0.213864 50.9714
rfemur -21.8866 4.12909 17.8592
rtibia 64.2106
rfoot -33.6548 -8.2712
rtoes -7.2245
lfemur -20.8608 5.9432 -20.7996
ltibia 64.1155
lfoot -30.4759 1.32886
ltoes -8.02096
302
root 1.48758 16.7902 1.91273 -5.10861 2.04507 1.20421
lowerback 16.2277 0.135587 -2.42128
upperback 2.88597 -0.246432 -0.20126
thorax -6.00519 -0.0749593 1.21106
lowerneck -8.44093 -2.33148 -6.37411
upperneck 0.08814 -2.71072 8.0241
head 1.76088 -1.18792 3.67636
rclavicle 2.04997e-015 -1.66979e-014
rhumerus -37.3353 5.97536 -82.9834
rradius 31.9118
rwrist 2.45404
rhand -26.2797 -3.22725
rfingers 7.12502
rthumb 0.275569 -33.2068
lclavicle 2.04997e-015 -1.66979e-014
lhumerus -33.5235 19.1295 72.8208
lradius 23.7305
lwrist -2.37322
lhand -26.8277 21.0531
lfingers 7.12502
lthumb -0.253716 51.0327
rfemur -21.5041 4.23757 17.874
rtibia 63.3304
rfoot -33.4791 -8.28371
rtoes -6.66411
lfemur -20.5724 5.78106 -20.8318
ltibia 63.2462
lfoot -30.2598 1.58928
ltoes -8.30693
